<?xml version="1.0" encoding="utf-8"?>
<!-- Generator: Adobe Illustrator 16.0.0, SVG Export Plug-In . SVG Version: 6.00 Build 0)  -->
<!DOCTYPE svg PUBLIC "-//W3C//DTD SVG 1.1//EN" "http://www.w3.org/Graphics/SVG/1.1/DTD/svg11.dtd">
<svg version="1.1" id="Calque_1" xmlns="http://www.w3.org/2000/svg" xmlns:xlink="http://www.w3.org/1999/xlink" x="0px" y="0px"
	 width="1200px" height="900px" viewBox="0 0 1200 900" enable-background="new 0 0 1200 900" xml:space="preserve">
<g>
	<g>
		<rect x="8" y="4" fill="#888888" width="65" height="60"/>
		<rect x="77.969" y="4" fill="#888888" width="65" height="60"/>
		<rect x="147.938" y="4" fill="#888888" width="65" height="60"/>
		<rect x="217.906" y="4" fill="#888888" width="65" height="60"/>
		<rect x="287.875" y="4" fill="#888888" width="65" height="60"/>
		<rect x="357.844" y="4" fill="#888888" width="65" height="60"/>
		<rect x="427.813" y="4" fill="#888888" width="65" height="60"/>
		<rect x="497.781" y="4" fill="#888888" width="65" height="60"/>
		<rect x="567.75" y="4" fill="#888888" width="65" height="60"/>
		<rect x="637.719" y="4" fill="#888888" width="65" height="60"/>
		<rect x="707.688" y="4" fill="#888888" width="65" height="60"/>
		<rect x="777.656" y="4" fill="#888888" width="65" height="60"/>
		<rect x="847.625" y="4" fill="#888888" width="65" height="60"/>
		<rect x="917.594" y="4" fill="#888888" width="65" height="60"/>
		<rect x="987.563" y="4" fill="#888888" width="65" height="60"/>
		<rect x="1057.531" y="4" fill="#888888" width="65" height="60"/>
		<rect x="1127.5" y="4" fill="#888888" width="65" height="60"/>
	</g>
	<g>
		<rect x="8.083" y="73.417" fill="#888888" width="65" height="60"/>
		<rect x="78.052" y="73.417" fill="#888888" width="65" height="60"/>
		<rect x="148.021" y="73.417" fill="#888888" width="65" height="60"/>
		<rect x="217.989" y="73.417" fill="#888888" width="65" height="60"/>
		<rect x="287.958" y="73.417" fill="#888888" width="65" height="60"/>
		<rect x="357.927" y="73.417" fill="#888888" width="65" height="60"/>
		<rect x="427.896" y="73.417" fill="#888888" width="65" height="60"/>
		<rect x="497.864" y="73.417" fill="#888888" width="65" height="60"/>
		<rect x="567.833" y="73.417" fill="#888888" width="65" height="60"/>
		<rect x="637.802" y="73.417" fill="#888888" width="65" height="60"/>
		<rect x="707.771" y="73.417" fill="#888888" width="65" height="60"/>
		<rect x="777.739" y="73.417" fill="#888888" width="65" height="60"/>
		<rect x="847.708" y="73.417" fill="#888888" width="65" height="60"/>
		<rect x="917.677" y="73.417" fill="#888888" width="65" height="60"/>
		<rect x="987.646" y="73.417" fill="#888888" width="65" height="60"/>
		<rect x="1057.614" y="73.417" fill="#888888" width="65" height="60"/>
		<rect x="1127.583" y="73.417" fill="#888888" width="65" height="60"/>
	</g>
	<g>
		<rect x="8.167" y="142.833" fill="#888888" width="65" height="60"/>
		<rect x="78.135" y="142.833" fill="#888888" width="65" height="60"/>
		<rect x="148.104" y="142.833" fill="#888888" width="65" height="60"/>
		<rect x="218.073" y="142.833" fill="#888888" width="65" height="60"/>
		<rect x="288.042" y="142.833" fill="#888888" width="65" height="60"/>
		<rect x="358.01" y="142.833" fill="#888888" width="65" height="60"/>
		<rect x="427.979" y="142.833" fill="#888888" width="65" height="60"/>
		<rect x="497.948" y="142.833" fill="#888888" width="65" height="60"/>
		<rect x="567.917" y="142.833" fill="#888888" width="65" height="60"/>
		<rect x="637.886" y="142.833" fill="#888888" width="65" height="60"/>
		<rect x="707.854" y="142.833" fill="#888888" width="64.999" height="60"/>
		<rect x="777.822" y="142.833" fill="#888888" width="65.001" height="60"/>
		<rect x="847.792" y="142.833" fill="#888888" width="65" height="60"/>
		<rect x="917.761" y="142.833" fill="#888888" width="64.999" height="60"/>
		<rect x="987.729" y="142.833" fill="#888888" width="65.001" height="60"/>
		<rect x="1057.698" y="142.833" fill="#888888" width="65" height="60"/>
		<rect x="1127.667" y="142.833" fill="#888888" width="64.999" height="60"/>
	</g>
	<g>
		<rect x="8.25" y="212.25" fill="#888888" width="65" height="60"/>
		<rect x="78.219" y="212.25" fill="#888888" width="65" height="60"/>
		<rect x="148.188" y="212.25" fill="#888888" width="65" height="60"/>
		<rect x="218.156" y="212.25" fill="#888888" width="65" height="60"/>
		<rect x="288.125" y="212.25" fill="#888888" width="65" height="60"/>
		<rect x="358.094" y="212.25" fill="#888888" width="65" height="60"/>
		<rect x="428.063" y="212.25" fill="#888888" width="65" height="60"/>
		<rect x="498.031" y="212.25" fill="#888888" width="65" height="60"/>
		<rect x="568" y="212.25" fill="#888888" width="65" height="60"/>
		<rect x="637.969" y="212.25" fill="#888888" width="65" height="60"/>
		<rect x="707.938" y="212.25" fill="#888888" width="65" height="60"/>
		<rect x="777.906" y="212.25" fill="#888888" width="65" height="60"/>
		<rect x="847.875" y="212.25" fill="#888888" width="65" height="60"/>
		<rect x="917.844" y="212.25" fill="#888888" width="65" height="60"/>
		<rect x="987.813" y="212.25" fill="#888888" width="65" height="60"/>
		<rect x="1057.781" y="212.25" fill="#888888" width="65" height="60"/>
		<rect x="1127.75" y="212.25" fill="#888888" width="65" height="60"/>
	</g>
	<g>
		<rect x="8.333" y="281.667" fill="#888888" width="65" height="60"/>
		<rect x="78.302" y="281.667" fill="#888888" width="65" height="60"/>
		<rect x="148.271" y="281.667" fill="#888888" width="65" height="60"/>
		<rect x="218.239" y="281.667" fill="#888888" width="65" height="60"/>
		<rect x="288.208" y="281.667" fill="#888888" width="65" height="60"/>
		<rect x="358.177" y="281.667" fill="#888888" width="65" height="60"/>
		<rect x="428.146" y="281.667" fill="#888888" width="65" height="60"/>
		<rect x="498.114" y="281.667" fill="#888888" width="65" height="60"/>
		<rect x="568.083" y="281.667" fill="#888888" width="65" height="60"/>
		<rect x="638.052" y="281.667" fill="#888888" width="65" height="60"/>
		<rect x="708.021" y="281.667" fill="#888888" width="65.001" height="60"/>
		<rect x="777.99" y="281.667" fill="#888888" width="64.999" height="60"/>
		<rect x="847.958" y="281.667" fill="#888888" width="65" height="60"/>
		<rect x="917.927" y="281.667" fill="#888888" width="65.001" height="60"/>
		<rect x="987.896" y="281.667" fill="#888888" width="64.999" height="60"/>
		<rect x="1057.864" y="281.667" fill="#888888" width="65.001" height="60"/>
		<rect x="1127.834" y="281.667" fill="#888888" width="65" height="60"/>
	</g>
	<g>
		<rect x="8.417" y="351.084" fill="#888888" width="65" height="60"/>
		<rect x="78.386" y="351.084" fill="#888888" width="65" height="60"/>
		<rect x="148.354" y="351.084" fill="#888888" width="65" height="60"/>
		<rect x="218.323" y="351.084" fill="#888888" width="65" height="60"/>
		<rect x="288.292" y="351.084" fill="#888888" width="65" height="60"/>
		<rect x="358.261" y="351.084" fill="#888888" width="65" height="60"/>
		<rect x="428.229" y="351.084" fill="#888888" width="65" height="60"/>
		<rect x="498.198" y="351.084" fill="#888888" width="65" height="60"/>
		<rect x="568.167" y="351.084" fill="#888888" width="65" height="60"/>
		<rect x="638.136" y="351.084" fill="#888888" width="65" height="60"/>
		<rect x="708.104" y="351.084" fill="#888888" width="65" height="60"/>
		<rect x="778.073" y="351.084" fill="#888888" width="65" height="60"/>
		<rect x="848.042" y="351.084" fill="#888888" width="65" height="60"/>
		<rect x="918.011" y="351.084" fill="#888888" width="65" height="60"/>
		<rect x="987.979" y="351.084" fill="#888888" width="65" height="60"/>
		<rect x="1057.948" y="351.084" fill="#888888" width="65" height="60"/>
		<rect x="1127.917" y="351.084" fill="#888888" width="65" height="60"/>
	</g>
	<g>
		<rect x="8.5" y="420.5" fill="#888888" width="65" height="60"/>
		<rect x="78.469" y="420.5" fill="#888888" width="65" height="60"/>
		<rect x="148.438" y="420.5" fill="#888888" width="65" height="60"/>
		<rect x="218.406" y="420.5" fill="#888888" width="65" height="60"/>
		<rect x="288.375" y="420.5" fill="#888888" width="65" height="60"/>
		<rect x="358.344" y="420.5" fill="#888888" width="65" height="60"/>
		<rect x="428.313" y="420.5" fill="#888888" width="65" height="60"/>
		<rect x="498.281" y="420.5" fill="#888888" width="65" height="60"/>
		<rect x="568.25" y="420.5" fill="#888888" width="65" height="60"/>
		<rect x="638.219" y="420.5" fill="#888888" width="65" height="60"/>
		<rect x="708.188" y="420.5" fill="#888888" width="65" height="60"/>
		<rect x="778.156" y="420.5" fill="#888888" width="65" height="60"/>
		<rect x="848.125" y="420.5" fill="#888888" width="65" height="60"/>
		<rect x="918.094" y="420.5" fill="#888888" width="65" height="60"/>
		<rect x="988.063" y="420.5" fill="#888888" width="65" height="60"/>
		<rect x="1058.031" y="420.5" fill="#888888" width="65" height="60"/>
		<rect x="1128" y="420.5" fill="#888888" width="65" height="60"/>
	</g>
	<g>
		<rect x="8.583" y="489.916" fill="#888888" width="65" height="60"/>
		<rect x="78.552" y="489.916" fill="#888888" width="65" height="60"/>
		<rect x="148.521" y="489.916" fill="#888888" width="65" height="60"/>
		<rect x="218.489" y="489.916" fill="#888888" width="65" height="60"/>
		<rect x="288.458" y="489.916" fill="#888888" width="65" height="60"/>
		<rect x="358.427" y="489.916" fill="#888888" width="65" height="60"/>
		<rect x="428.396" y="489.916" fill="#888888" width="65" height="60"/>
		<rect x="498.365" y="489.916" fill="#888888" width="65" height="60"/>
		<rect x="568.333" y="489.916" fill="#888888" width="65" height="60"/>
		<rect x="638.302" y="489.916" fill="#888888" width="65.001" height="60"/>
		<rect x="708.271" y="489.916" fill="#888888" width="64.999" height="60"/>
		<rect x="778.239" y="489.916" fill="#888888" width="65" height="60"/>
		<rect x="848.208" y="489.916" fill="#888888" width="65.001" height="60"/>
		<rect x="918.178" y="489.916" fill="#888888" width="64.999" height="60"/>
		<rect x="988.146" y="489.916" fill="#888888" width="65" height="60"/>
		<rect x="1058.114" y="489.916" fill="#888888" width="65.001" height="60"/>
		<rect x="1128.084" y="489.916" fill="#888888" width="64.999" height="60"/>
	</g>
	<g>
		<rect x="8.667" y="559.334" fill="#888888" width="65" height="60"/>
		<rect x="78.635" y="559.334" fill="#888888" width="65" height="60"/>
		<rect x="148.604" y="559.334" fill="#888888" width="65" height="60"/>
		<rect x="218.573" y="559.334" fill="#888888" width="65" height="60"/>
		<rect x="288.542" y="559.334" fill="#888888" width="65" height="60"/>
		<rect x="358.511" y="559.334" fill="#888888" width="65" height="60"/>
		<rect x="428.479" y="559.334" fill="#888888" width="65" height="60"/>
		<rect x="498.448" y="559.334" fill="#888888" width="65" height="60"/>
		<rect x="568.417" y="559.334" fill="#888888" width="65" height="60"/>
		<rect x="638.386" y="559.334" fill="#888888" width="64.999" height="60"/>
		<rect x="708.354" y="559.334" fill="#888888" width="65.001" height="60"/>
		<rect x="778.323" y="559.334" fill="#888888" width="65" height="60"/>
		<rect x="848.292" y="559.334" fill="#888888" width="64.999" height="60"/>
		<rect x="918.26" y="559.334" fill="#888888" width="65.001" height="60"/>
		<rect x="988.229" y="559.334" fill="#888888" width="65" height="60"/>
		<rect x="1058.198" y="559.334" fill="#888888" width="64.999" height="60"/>
		<rect x="1128.166" y="559.334" fill="#888888" width="65" height="60"/>
	</g>
	<g>
		<rect x="8.75" y="628.75" fill="#888888" width="65" height="60"/>
		<rect x="78.719" y="628.75" fill="#888888" width="65" height="60"/>
		<rect x="148.688" y="628.75" fill="#888888" width="65" height="60"/>
		<rect x="218.656" y="628.75" fill="#888888" width="65" height="60"/>
		<rect x="288.625" y="628.75" fill="#888888" width="65" height="60"/>
		<rect x="358.594" y="628.75" fill="#888888" width="65" height="60"/>
		<rect x="428.563" y="628.75" fill="#888888" width="65" height="60"/>
		<rect x="498.531" y="628.75" fill="#888888" width="65" height="60"/>
		<rect x="568.5" y="628.75" fill="#888888" width="65" height="60"/>
		<rect x="638.469" y="628.75" fill="#888888" width="65" height="60"/>
		<rect x="708.438" y="628.75" fill="#888888" width="65" height="60"/>
		<rect x="778.406" y="628.75" fill="#888888" width="65" height="60"/>
		<rect x="848.375" y="628.75" fill="#888888" width="65" height="60"/>
		<rect x="918.344" y="628.75" fill="#888888" width="65" height="60"/>
		<rect x="988.313" y="628.75" fill="#888888" width="65" height="60"/>
		<rect x="1058.281" y="628.75" fill="#888888" width="65" height="60"/>
		<rect x="1128.25" y="628.75" fill="#888888" width="65" height="60"/>
	</g>
	<g>
		<rect x="8.833" y="698.166" fill="#888888" width="65" height="60"/>
		<rect x="78.802" y="698.166" fill="#888888" width="65" height="60"/>
		<rect x="148.771" y="698.166" fill="#888888" width="65" height="60"/>
		<rect x="218.739" y="698.166" fill="#888888" width="65" height="60"/>
		<rect x="288.708" y="698.166" fill="#888888" width="65" height="60"/>
		<rect x="358.677" y="698.166" fill="#888888" width="65" height="60"/>
		<rect x="428.646" y="698.166" fill="#888888" width="65" height="60"/>
		<rect x="498.615" y="698.166" fill="#888888" width="65" height="60"/>
		<rect x="568.583" y="698.166" fill="#888888" width="65" height="60"/>
		<rect x="638.552" y="698.166" fill="#888888" width="65.001" height="60"/>
		<rect x="708.521" y="698.166" fill="#888888" width="64.999" height="60"/>
		<rect x="778.489" y="698.166" fill="#888888" width="65" height="60"/>
		<rect x="848.458" y="698.166" fill="#888888" width="65.001" height="60"/>
		<rect x="918.428" y="698.166" fill="#888888" width="64.999" height="60"/>
		<rect x="988.396" y="698.166" fill="#888888" width="65" height="60"/>
		<rect x="1058.364" y="698.166" fill="#888888" width="65.001" height="60"/>
		<rect x="1128.334" y="698.166" fill="#888888" width="64.999" height="60"/>
	</g>
	<g>
		<rect x="8.917" y="767.584" fill="#888888" width="65" height="60"/>
		<rect x="78.885" y="767.584" fill="#888888" width="65" height="60"/>
		<rect x="148.854" y="767.584" fill="#888888" width="65" height="60"/>
		<rect x="218.823" y="767.584" fill="#888888" width="65" height="60"/>
		<rect x="288.792" y="767.584" fill="#888888" width="65" height="60"/>
		<rect x="358.76" y="767.584" fill="#888888" width="65" height="60"/>
		<rect x="428.729" y="767.584" fill="#888888" width="65" height="60"/>
		<rect x="498.698" y="767.584" fill="#888888" width="65" height="60"/>
		<rect x="568.667" y="767.584" fill="#888888" width="65" height="60"/>
		<rect x="638.636" y="767.584" fill="#888888" width="64.999" height="60"/>
		<rect x="708.604" y="767.584" fill="#888888" width="65.001" height="60"/>
		<rect x="778.573" y="767.584" fill="#888888" width="65" height="60"/>
		<rect x="848.542" y="767.584" fill="#888888" width="64.999" height="60"/>
		<rect x="918.51" y="767.584" fill="#888888" width="65.001" height="60"/>
		<rect x="988.479" y="767.584" fill="#888888" width="65" height="60"/>
		<rect x="1058.448" y="767.584" fill="#888888" width="64.999" height="60"/>
		<rect x="1128.416" y="767.584" fill="#888888" width="65.001" height="60"/>
	</g>
	<g>
		<rect x="9" y="837" fill="#888888" width="65" height="60"/>
		<rect x="78.969" y="837" fill="#888888" width="65" height="60"/>
		<rect x="148.938" y="837" fill="#888888" width="65" height="60"/>
		<rect x="218.906" y="837" fill="#888888" width="65" height="60"/>
		<rect x="288.875" y="837" fill="#888888" width="65" height="60"/>
		<rect x="358.844" y="837" fill="#888888" width="65" height="60"/>
		<rect x="428.813" y="837" fill="#888888" width="65" height="60"/>
		<rect x="498.781" y="837" fill="#888888" width="65" height="60"/>
		<rect x="568.75" y="837" fill="#888888" width="65" height="60"/>
		<rect x="638.719" y="837" fill="#888888" width="65" height="60"/>
		<rect x="708.688" y="837" fill="#888888" width="65" height="60"/>
		<rect x="778.656" y="837" fill="#888888" width="65" height="60"/>
		<rect x="848.625" y="837" fill="#888888" width="65" height="60"/>
		<rect x="918.594" y="837" fill="#888888" width="65" height="60"/>
		<rect x="988.563" y="837" fill="#888888" width="65" height="60"/>
		<rect x="1058.531" y="837" fill="#888888" width="65" height="60"/>
		<rect x="1128.5" y="837" fill="#888888" width="65" height="60"/>
	</g>
</g>
<ellipse fill="#FFFFFF" cx="603" cy="452" rx="424" ry="423"/>
<rect x="77.5" y="69" fill="#00CC99" width="65.5" height="381.5"/>
<rect x="77.5" y="451.75" fill="#CC3467" width="65.5" height="381.5"/>
<rect x="1058.366" y="449.832" fill="#6766FF" width="65.5" height="381.5"/>
<rect x="1058.367" y="68.842" fill="#669934" width="65.5" height="381.5"/>
<rect x="142.917" y="69.666" fill="#669AFF" width="70.167" height="133.333"/>
<rect x="142.918" y="698.332" fill="#CC6601" width="70.833" height="135.333"/>
<rect x="988.253" y="697.669" fill="#CC6601" width="70.833" height="133.333"/>
<rect x="987.333" y="69.669" fill="#669AFF" width="70.834" height="134"/>
<g>
	<defs>
		<ellipse id="SVGID_1_" cx="603" cy="452" rx="424" ry="423"/>
	</defs>
	<clipPath id="SVGID_2_">
		<use xlink:href="#SVGID_1_"  overflow="visible"/>
	</clipPath>
	<g clip-path="url(#SVGID_2_)">
		<rect x="148" y="418.5" width="65.5" height="30"/>
		<rect x="218.021" y="418.5" width="65.5" height="30"/>
		<rect x="288.042" y="418.5" width="65.5" height="30"/>
		<rect x="358.063" y="418.5" width="65.5" height="30"/>
		<rect x="428.083" y="418.5" width="65.5" height="30"/>
		<rect x="498.104" y="418.5" width="65.5" height="30"/>
		<rect x="638.146" y="418.5" width="65.499" height="30"/>
		<rect x="708.166" y="418.5" width="65.501" height="30"/>
		<rect x="778.188" y="418.5" width="65.5" height="30"/>
		<rect x="848.209" y="418.5" width="65.499" height="30"/>
		<rect x="918.229" y="418.5" width="65.501" height="30"/>
		<rect x="988.25" y="418.5" width="65.5" height="30"/>
	</g>
	<g clip-path="url(#SVGID_2_)">
		<rect x="148.007" y="452.501" width="65.5" height="30"/>
		<rect x="218.028" y="452.501" width="65.5" height="30"/>
		<rect x="288.048" y="452.501" width="65.5" height="30"/>
		<rect x="358.069" y="452.501" width="65.5" height="30"/>
		<rect x="428.09" y="452.501" width="65.5" height="30"/>
		<rect x="498.111" y="452.501" width="65.5" height="30"/>
		<rect x="638.152" y="452.501" width="65.501" height="30"/>
		<rect x="708.174" y="452.501" width="65.499" height="30"/>
		<rect x="778.194" y="452.501" width="65.5" height="30"/>
		<rect x="848.215" y="452.501" width="65.501" height="30"/>
		<rect x="918.236" y="452.501" width="65.499" height="30"/>
		<rect x="988.257" y="452.501" width="65.5" height="30"/>
	</g>
	<g clip-path="url(#SVGID_2_)">
		<polygon points="279,624.668 269,626.668 269,484.001 279,482.001 		"/>
		<polygon points="298.834,624.585 288.834,626.251 288.834,483.584 298.834,481.918 		"/>
		<polygon points="318.667,624.501 308.667,625.835 308.667,483.168 318.667,481.834 		"/>
		<polygon points="338.5,624.418 328.5,625.418 328.5,482.75 338.5,481.75 		"/>
		<polygon points="358.334,624.334 348.334,625.001 348.334,482.334 358.334,481.668 		"/>
		<polygon points="378.167,624.252 368.167,624.585 368.167,481.918 378.167,481.584 		"/>
		<rect x="388" y="481.501" width="10" height="142.667"/>
	</g>
	<g clip-path="url(#SVGID_2_)">
		<rect x="406" y="481" width="8" height="142.5"/>
		<rect x="422" y="481.107" width="8" height="142.5"/>
		<rect x="438" y="481.214" width="8" height="142.5"/>
		<rect x="454" y="481.321" width="8" height="142.5"/>
		<rect x="470" y="481.429" width="8" height="142.5"/>
		<rect x="486" y="481.535" width="8" height="142.501"/>
		<rect x="502" y="481.643" width="8" height="142.5"/>
		<rect x="518" y="481.75" width="8" height="142.5"/>
	</g>
	<g clip-path="url(#SVGID_2_)">
		<rect x="531.5" y="482" width="6" height="142.5"/>
		<rect x="543.545" y="482" width="6" height="142.5"/>
		<rect x="555.591" y="482" width="6" height="142.5"/>
		<rect x="567.636" y="482" width="6" height="142.5"/>
		<rect x="579.682" y="482" width="6" height="142.5"/>
		<rect x="591.728" y="482" width="6" height="142.5"/>
		<rect x="603.773" y="482" width="5.999" height="142.5"/>
		<rect x="615.818" y="482" width="6" height="142.5"/>
		<rect x="627.863" y="482" width="6" height="142.5"/>
		<rect x="639.909" y="482" width="6" height="142.5"/>
		<rect x="651.955" y="482" width="5.999" height="142.5"/>
		<rect x="664" y="482" width="6" height="142.5"/>
	</g>
	<g clip-path="url(#SVGID_2_)">
		<rect x="673.75" y="482" width="4.25" height="141.75"/>
		<rect x="681.75" y="482" width="4.25" height="141.75"/>
		<rect x="689.75" y="482" width="4.25" height="141.75"/>
		<rect x="697.75" y="482" width="4.25" height="141.75"/>
		<rect x="705.75" y="482" width="4.25" height="141.75"/>
		<rect x="713.75" y="482" width="4.25" height="141.75"/>
		<rect x="721.75" y="482" width="4.25" height="141.75"/>
		<rect x="729.75" y="482" width="4.25" height="141.75"/>
		<rect x="737.75" y="482" width="4.25" height="141.75"/>
		<rect x="745.75" y="482" width="4.25" height="141.75"/>
		<rect x="753.75" y="482" width="4.25" height="141.75"/>
		<rect x="761.75" y="482" width="4.25" height="141.75"/>
		<rect x="769.75" y="482" width="4.25" height="141.75"/>
		<rect x="777.75" y="482" width="4.25" height="141.75"/>
		<rect x="785.75" y="482" width="4.25" height="141.75"/>
		<rect x="793.75" y="482" width="4.25" height="141.75"/>
		<rect x="801.75" y="482" width="4.25" height="141.75"/>
		<rect x="809.75" y="482" width="4.25" height="141.75"/>
	</g>
	<g clip-path="url(#SVGID_2_)">
		<rect x="816.001" y="481.835" width="2" height="142.167"/>
		<rect x="820.011" y="481.843" width="2" height="142.167"/>
		<rect x="824.021" y="481.85" width="2" height="142.168"/>
		<rect x="828.031" y="481.858" width="2" height="142.167"/>
		<rect x="832.041" y="481.866" width="2" height="142.167"/>
		<rect x="836.051" y="481.873" width="2" height="142.167"/>
		<rect x="840.061" y="481.881" width="2" height="142.167"/>
		<rect x="844.071" y="481.889" width="2" height="142.167"/>
		<rect x="848.081" y="481.896" width="2.001" height="142.167"/>
		<rect x="852.091" y="481.904" width="2" height="142.166"/>
		<rect x="856.101" y="481.911" width="2" height="142.167"/>
		<rect x="860.111" y="481.919" width="2" height="142.167"/>
		<rect x="864.121" y="481.927" width="2" height="142.167"/>
		<rect x="868.131" y="481.935" width="2" height="142.167"/>
		<rect x="872.141" y="481.942" width="2" height="142.167"/>
		<rect x="876.151" y="481.95" width="1.999" height="142.167"/>
		<rect x="880.161" y="481.958" width="2" height="142.167"/>
		<rect x="884.171" y="481.965" width="2" height="142.168"/>
		<rect x="888.181" y="481.973" width="2" height="142.168"/>
		<rect x="892.191" y="481.98" width="2" height="142.167"/>
		<rect x="896.201" y="481.988" width="2" height="142.167"/>
		<rect x="900.211" y="481.996" width="2" height="142.167"/>
		<rect x="904.221" y="482.004" width="2" height="142.167"/>
		<rect x="908.23" y="482.012" width="2" height="142.166"/>
		<rect x="912.241" y="482.019" width="2" height="142.167"/>
		<rect x="916.251" y="482.026" width="2" height="142.167"/>
		<rect x="920.261" y="482.034" width="2" height="142.167"/>
		<rect x="924.271" y="482.042" width="2.001" height="142.167"/>
		<rect x="928.281" y="482.049" width="2" height="142.168"/>
		<rect x="932.291" y="482.058" width="2" height="142.167"/>
		<rect x="936.301" y="482.064" width="2" height="142.168"/>
		<rect x="940.312" y="482.072" width="2" height="142.167"/>
		<rect x="944.321" y="482.08" width="2" height="142.167"/>
		<rect x="948.331" y="482.088" width="2" height="142.167"/>
	</g>
	<g clip-path="url(#SVGID_2_)">
		<rect x="179.667" y="272.6" fill="#FFFF01" width="141.333" height="145.055"/>
		<rect x="319.933" y="272.736" fill="#01FFFF" width="141.333" height="145.055"/>
		<rect x="460.2" y="272.872" fill="#34FF00" width="141.333" height="145.055"/>
		<rect x="600.467" y="273.007" fill="#FF00FE" width="141.334" height="145.055"/>
		<rect x="740.733" y="273.142" fill="#FE0000" width="141.334" height="145.055"/>
		<rect x="881" y="273.278" fill="#0000FE" width="153.834" height="145.055"/>
	</g>
	<rect x="567.667" y="347.667" clip-path="url(#SVGID_2_)" width="32" height="100"/>
	<rect x="567.666" y="453" clip-path="url(#SVGID_2_)" width="32" height="100.667"/>
	<rect x="604.332" y="348.333" clip-path="url(#SVGID_2_)" width="32" height="99.333"/>
	<rect x="604.333" y="452.334" clip-path="url(#SVGID_2_)" width="32" height="102.666"/>
	<g clip-path="url(#SVGID_2_)">
		<rect x="202.333" y="205.333" fill="#BBBBBB" width="52.667" height="70"/>
		<rect x="302" y="205.19" fill="#BBBBBB" width="53.333" height="70"/>
		<rect x="401.667" y="205.048" fill="#BBBBBB" width="50.667" height="70"/>
		<rect x="501.333" y="204.905" fill="#BBBBBB" width="50.667" height="70"/>
		<rect x="601" y="204.762" fill="#BBBBBB" width="50.667" height="70"/>
		<rect x="700.666" y="204.619" fill="#BBBBBB" width="50.668" height="70"/>
		<rect x="800.333" y="204.477" fill="#BBBBBB" width="50.667" height="70"/>
		<rect x="900" y="204.333" fill="#BBBBBB" width="50.667" height="70"/>
	</g>
	<g clip-path="url(#SVGID_2_)">
		<rect x="254.333" y="205" width="50.667" height="70"/>
		<rect x="353.619" y="205.048" width="50.667" height="70"/>
		<rect x="452.904" y="205.095" width="50.667" height="70"/>
		<rect x="552.19" y="205.143" width="50.667" height="70"/>
		<rect x="651.477" y="205.19" width="50.666" height="70"/>
		<rect x="750.762" y="205.238" width="50.667" height="70"/>
		<rect x="850.048" y="205.286" width="50.666" height="70"/>
		<rect x="949.333" y="205.333" width="50.667" height="70"/>
	</g>
	<g clip-path="url(#SVGID_2_)">
		<rect x="322.333" y="624" fill="#444444" width="136" height="70.666"/>
		<rect x="457.777" y="623.777" fill="#777777" width="142" height="70.666"/>
		<rect x="599.555" y="623.556" fill="#AAAAAA" width="144" height="71.666"/>
		<rect x="743.333" y="623.333" fill="#DDDDDD" width="136" height="70.666"/>
	</g>
	<rect x="177" y="482" clip-path="url(#SVGID_2_)" width="146" height="212.5"/>
	<rect x="952.667" y="482.666" clip-path="url(#SVGID_2_)" width="79" height="142.167"/>
	<rect x="237" y="135" clip-path="url(#SVGID_2_)" width="148.5" height="71"/>
	<rect x="811.5" y="134.5" clip-path="url(#SVGID_2_)" width="148.5" height="71"/>
	<rect x="461.5" y="68.5" clip-path="url(#SVGID_2_)" width="278.5" height="64.5"/>
	<rect x="391.5" y="693.357" clip-path="url(#SVGID_2_)" width="418" height="74.143"/>
	<rect x="325" y="766.5" clip-path="url(#SVGID_2_)" fill="#FFFF01" width="241.5" height="108"/>
	<rect x="635.75" y="767" clip-path="url(#SVGID_2_)" fill="#FFFF01" width="268.5" height="108"/>
	<rect x="566.5" y="766.5" clip-path="url(#SVGID_2_)" fill="#FE0000" width="70" height="115.5"/>
</g>
<rect x="428" y="137" width="4" height="67.5"/>
<rect x="487" y="87.667" fill="none" width="228" height="31.333"/>
<text transform="matrix(1 0 0 1 568.8042 104.7061)" fill="#FFFFFF" font-family="'CooperBlackStd'" font-size="24">ROHM</text>
<rect x="411.668" y="714.333" fill="none" width="386" height="43.333"/>
<text transform="matrix(1 0 0 1 542.3896 731.373)" fill="#FFFFFF" font-family="'CooperBlackStd'" font-size="24">22 Nov 2010</text>
</svg>
